<svg width="218" height="218" version="1.1" viewBox="0 0 512 512" xmlns="http://www.w3.org/2000/svg" xmlns:xlink="http://www.w3.org/1999/xlink">
    <defs>
        <g id="logo">
            <path d="m34.961-45.895c-17.789 0.78452-34.375 5.9726-48.733 14.482-13.094 8.7717-23.486 24.437-23.486 41.382 3.9e-4 27 21.889 49.336 48.889 49.336h23.331v-1.0677c-26.482-2.3428-47.254-24.553-47.255-51.643 0.12915-26.764 20.597-49.037 47.255-51.422zm9.2456 0.0135v1.0519c8.0977 0.69653 15.918 3.2859 22.832 7.5594-8.2e-4 -0.0165-9.2e-4 -0.033-2e-3 -0.0497 5e-3 -1.8537 1.0128-3.5595 2.6342-4.458-8.2868-2.4102-16.839-3.7885-25.464-4.1036zm37.237 9.0627c-2.8234 0-5.1126 2.2892-5.1126 5.1126 0 1.3287 0.51649 2.5296 1.3498 3.4264 1.7886 1.925 3.3756 4.0041 4.8372 6.16 1.257-4.8513 5.3883-8.5424 10.467-9.1575-2.9944-1.7789-6.0543-3.4706-9.2501-4.9614-0.72263-0.33709-1.4713-0.5801-2.2911-0.5801zm19.213 13.681c-6.5929 0-11.938 5.3433-11.938 11.936 0 1.0533 0.13777 2.0757 0.46273 3.1127 0.5391 1.7204 0.95001 3.4666 1.2979 5.2255 5.4728-4.8667 12.679-7.8258 20.579-7.8258 2.6735 0 5.2675 0.34075 7.7423 0.97738-3.2257-3.73-6.6944-7.264-10.433-10.532-2.1208-1.854-4.7952-2.8938-7.7106-2.8938zm11.859 25.057c-9.8137 0.0784-19.977 3.9586-22.118 15.322-0.4367 2.3174-1.0792 4.5564-1.8284 6.7468 6.1634-3.0103 13.084-4.7063 20.405-4.7063 12.319 0 23.519 4.7868 31.847 12.598-1.4968-5.5674-3.4037-10.995-5.6837-16.245-1.6146-3.7181-4.1191-7.7237-8.0966-9.9453-4.2981-2.4005-9.2527-3.8116-14.525-3.7696zm-166.05 8.7399c-4.3925 8.468-7.6746 17.599-9.6383 27.202-1.3279 6.4937-0.3971 17.198 2.9457 22.904 8.0807 13.794 23.052 23.06 40.194 23.06 2.8195 0 5.5773-0.25845 8.2546-0.74714 5.1053-0.93184 11.443-6.1152 15.196-9.7015 1.6543-1.5809 3.4151-3.0534 5.2683-4.4106-3.5161 0.75239-7.1614 1.1557-10.902 1.1557-28.652 0-51.88-23.228-51.88-51.88 0-2.577 0.19894-5.1057 0.56204-7.582zm152.73 22.854c-2.8195 0-5.5773 0.25846-8.2546 0.74714-5.1053 0.93184-11.443 6.1152-15.196 9.7015-1.6543 1.5809-3.4151 3.0534-5.2683 4.4106 3.5161-0.7524 7.1614-1.1557 10.902-1.1557 28.652 0 51.88 23.228 51.88 51.88 0 2.577-0.19895 5.1057-0.56205 7.582 4.3925-8.4679 7.6746-17.599 9.6383-27.202 1.3279-6.4937 0.39709-17.198-2.9457-22.904-8.0807-13.794-23.052-23.06-40.194-23.06zm-54.99 24.52v1.0677c26.482 2.3428 47.254 24.553 47.255 51.643-0.12915 26.764-20.597 49.037-47.255 51.422v1.0677c17.789-0.78452 34.375-5.9726 48.733-14.482 13.094-8.7716 23.486-24.437 23.486-41.382-3.9e-4 -27-21.889-49.336-48.889-49.336zm-105.86 27.425c1.4968 5.5674 3.4037 10.995 5.6837 16.245 1.6146 3.7181 4.1191 7.7237 8.0966 9.9453 4.2981 2.4005 9.2527 3.8116 14.525 3.7696 9.8137-0.0784 19.977-3.9586 22.118-15.322 0.4367-2.3174 1.0792-4.5564 1.8283-6.7468-6.1634 3.0104-13.084 4.7063-20.405 4.7063-12.319 0-23.519-4.7868-31.847-12.598zm50.343 34.743c-5.4728 4.8667-12.679 7.8258-20.579 7.8258-2.6735 0-5.2675-0.34074-7.7422-0.97738 3.2257 3.7299 6.6944 7.264 10.433 10.532 2.1208 1.854 4.7953 2.8938 7.7106 2.8938 6.5929 0 11.938-5.3433 11.938-11.936 0-1.0534-0.13777-2.0757-0.46273-3.1127-0.53909-1.7204-0.95001-3.4666-1.2979-5.2254zm7.9612 19.256c-1.257 4.8513-5.3883 8.5424-10.467 9.1575 2.9944 1.7789 6.0543 3.4706 9.2501 4.9614 0.72263 0.33709 1.4713 0.58011 2.2911 0.58011 2.8234 0 5.1126-2.2892 5.1126-5.1126 0-1.3287-0.51649-2.5296-1.3498-3.4265-1.7886-1.925-3.3756-4.0041-4.8372-6.1599zm15.48 15.15c8.3e-4 0.0165 9.8e-4 0.0331 2e-3 0.0497-5e-3 1.8537-1.0128 3.5595-2.6342 4.458 8.2868 2.4102 16.839 3.7885 25.464 4.1036v-1.0518c-8.0977-0.69654-15.918-3.2859-22.832-7.5594z"/>
        </g>
    </defs>
    <g fill="hsl(0, 0%, 100%, 5%)">
        <use xlink:href="#logo" transform="translate(0,0)"/>
        <use xlink:href="#logo" transform="translate(512,512)"/>
        <use xlink:href="#logo" transform="translate(512)"/>
        <use xlink:href="#logo" transform="matrix(.37101 0 0 .37101 506.62 234.13)"/>
        <use xlink:href="#logo" transform="matrix(.37101 0 0 .37101 300.88 288.97)"/>
        <use xlink:href="#logo" transform="matrix(.37101 0 0 .37101 -5.3803 234.13)"/>
        <use xlink:href="#logo" transform="matrix(.46946 0 0 .46946 28.484 374.49)"/>
        <use xlink:href="#logo" transform="matrix(.46946 0 0 .46946 540.48 374.49)"/>
        <use xlink:href="#logo" transform="matrix(.53731 0 0 .53731 394.43 190.07)"/>
        <use xlink:href="#logo" transform="matrix(.6905 0 0 .6905 135.76 213.77)"/>
        <use xlink:href="#logo" transform="matrix(.50482 0 0 .50482 278.01 130.22)"/>
        <use xlink:href="#logo" transform="matrix(.50482 0 0 .50482 411.37 376.76)"/>
        <use xlink:href="#logo" transform="matrix(.53731 0 0 .53731 197.59 517.54)"/>
        <use xlink:href="#logo" transform="matrix(.53731 0 0 .53731 197.59 5.5356)"/>
        <use xlink:href="#logo" transform="matrix(.53731 0 0 .53731 352.67 -12.229)"/>
        <use xlink:href="#logo" transform="matrix(.53731 0 0 .53731 352.67 500.34)"/>
        <use xlink:href="#logo" transform="matrix(.50482 0 0 .50482 198.41 360.93)"/>
        <use xlink:href="#logo" transform="translate(0,512)"/>
    </g>
</svg>
